# xmcd
# Track frame offsets:
# 150
# 14737
# 33091
# 47031
# 63532
# 78628
# 92658
# 109006
# 125144
# 139188
# 156690
# 173240
# 186771
# 202754
# 219035
# 231629
#
# Disc length: 3237 seconds
# Revision: 0
# Processed by: cddbd v1.5.2PL0 Copyright (c) Steve Scherf et al.
# Submitted via: VisiTrax 2.10.0.248 - For more info visit www.synapsa.com
#
DISCID=e60ca310
DTITLE=Lawrence, Tracy - Tracy Lawrence - Then and Now: The Hits Collection
DYEAR=2005
DGENRE=
TTITLE0=Used To The Pain
TTITLE1=If I Don't Make It Back
TTITLE2=If The World Had A Front Porch
TTITLE3=Sticks And Stones
TTITLE4=Is That A Tear
TTITLE5=Time Marches On
TTITLE6=I See It Now
TTITLE7=How A Cowgirl Says Goodbye
TTITLE8=Alibis
TTITLE9=Today's Lonely Fool
TTITLE10=Can't Break It To My Heart
TTITLE11=Lessons Learned
TTITLE12=Texas Tornado
TTITLE13=Stars Over Texas
TTITLE14=My Second Home
TTITLE15=If The Good Die Young
EXTD=
EXTT0=
EXTT1=
EXTT2=
EXTT3=
EXTT4=
EXTT5=
EXTT6=
EXTT7=
EXTT8=
EXTT9=
EXTT10=
EXTT11=
EXTT12=
EXTT13=
EXTT14=
EXTT15=
PLAYORDER=
